<?xml version="1.0" encoding="UTF-8"?>
<!DOCTYPE svg PUBLIC "-//W3C//DTD SVG 1.1//EN" "http://www.w3.org/Graphics/SVG/1.1/DTD/svg11.dtd">
<svg xmlns="http://www.w3.org/2000/svg" version="1.1" width="300px" height="300px" style="shape-rendering:geometricPrecision; text-rendering:geometricPrecision; image-rendering:optimizeQuality; fill-rule:evenodd; clip-rule:evenodd" xmlns:xlink="http://www.w3.org/1999/xlink">
<g><path style="opacity:1" fill="#db483c" d="M 275.5,68.5 C 278,71.4937 280,74.827 281.5,78.5C 233.668,79.3327 185.668,79.8327 137.5,80C 130.128,81.4274 123.128,83.9274 116.5,87.5C 115.702,87.9569 115.369,88.6236 115.5,89.5C 107.272,94.061 100.272,100.061 94.5,107.5C 93.325,107.719 92.325,107.386 91.5,106.5C 89.6944,103.528 87.6944,100.695 85.5,98C 84.175,98.1484 83.0084,97.9817 82,97.5C 70.3036,78.9919 58.4703,60.6586 46.5,42.5C 85.4997,6.56792 131.166,-5.93208 183.5,5C 222.29,14.6584 252.957,35.825 275.5,68.5 Z"/></g>
<g><path style="opacity:0.99" fill="#e0695e" d="M 133.5,-0.5 C 144.167,-0.5 154.833,-0.5 165.5,-0.5C 204.615,4.80875 237.448,22.1421 264,51.5C 268.472,56.7924 272.305,62.4591 275.5,68.5C 252.957,35.825 222.29,14.6584 183.5,5C 131.166,-5.93208 85.4997,6.56792 46.5,42.5C 37.6592,50.334 30.3258,59.334 24.5,69.5C 23.8333,69.5 23.5,69.1667 23.5,68.5C 41.4587,39.718 66.4587,19.5514 98.5,8C 110.038,4.03124 121.704,1.19791 133.5,-0.5 Z"/></g>
<g><path style="opacity:1" fill="#cc4234" d="M 46.5,42.5 C 58.4703,60.6586 70.3036,78.9919 82,97.5C 83.0084,97.9817 84.175,98.1484 85.5,98C 87.6944,100.695 89.6944,103.528 91.5,106.5C 92.325,107.386 93.325,107.719 94.5,107.5C 89.7737,114.286 86.107,121.619 83.5,129.5C 64.5061,109.839 45.1727,90.5061 25.5,71.5C 25.1667,70.8333 24.8333,70.1667 24.5,69.5C 30.3258,59.334 37.6592,50.334 46.5,42.5 Z"/></g>
<g><path style="opacity:1" fill="#bd4136" d="M 281.5,78.5 C 282.338,78.8417 282.672,79.5084 282.5,80.5C 240.833,80.5 199.167,80.5 157.5,80.5C 142.515,79.2168 128.515,82.2168 115.5,89.5C 115.369,88.6236 115.702,87.9569 116.5,87.5C 123.128,83.9274 130.128,81.4274 137.5,80C 185.668,79.8327 233.668,79.3327 281.5,78.5 Z"/></g>
<g><path style="opacity:1" fill="#efeeee" d="M 157.5,80.5 C 175.58,83.3713 190.58,91.7047 202.5,105.5C 209.273,113.713 213.94,123.046 216.5,133.5C 212.167,133.5 207.833,133.5 203.5,133.5C 194.254,108.097 176.088,94.7632 149,93.5C 122.455,95.2145 104.622,108.548 95.5,133.5C 91.1667,133.5 86.8333,133.5 82.5,133.5C 83.2341,132.292 83.5674,130.959 83.5,129.5C 86.107,121.619 89.7737,114.286 94.5,107.5C 100.272,100.061 107.272,94.061 115.5,89.5C 128.515,82.2168 142.515,79.2168 157.5,80.5 Z"/></g>
<g><path style="opacity:1" fill="#dba034" d="M 157.5,80.5 C 199.167,80.5 240.833,80.5 282.5,80.5C 256.208,87.3278 229.875,94.6612 203.5,102.5C 202.614,103.325 202.281,104.325 202.5,105.5C 190.58,91.7047 175.58,83.3713 157.5,80.5 Z"/></g>
<g><path style="opacity:1" fill="#b03b2d" d="M 25.5,71.5 C 45.1727,90.5061 64.5061,109.839 83.5,129.5C 83.5674,130.959 83.2341,132.292 82.5,133.5C 80.8417,143.961 79.8417,154.628 79.5,165.5C 61.5,134.167 43.5,102.833 25.5,71.5 Z"/></g>
<g><path style="opacity:1" fill="#4788f4" d="M 203.5,133.5 C 167.5,133.5 131.5,133.5 95.5,133.5C 104.622,108.548 122.455,95.2145 149,93.5C 176.088,94.7632 194.254,108.097 203.5,133.5 Z"/></g>
<g><path style="opacity:1" fill="#fbc23b" d="M 282.5,80.5 C 285.883,85.2762 288.216,90.6096 289.5,96.5C 289.833,99.1667 290.167,101.833 290.5,104.5C 265.047,109.196 239.714,114.529 214.5,120.5C 215.707,124.786 216.707,129.12 217.5,133.5C 217.167,133.5 216.833,133.5 216.5,133.5C 213.94,123.046 209.273,113.713 202.5,105.5C 202.281,104.325 202.614,103.325 203.5,102.5C 229.875,94.6612 256.208,87.3278 282.5,80.5 Z"/></g>
<g><path style="opacity:1" fill="#159e5b" d="M 23.5,68.5 C 23.5,69.1667 23.8333,69.5 24.5,69.5C 24.8333,70.1667 25.1667,70.8333 25.5,71.5C 43.5,102.833 61.5,134.167 79.5,165.5C 79.8333,166.167 80.1667,166.833 80.5,167.5C 80.1697,186.674 80.503,205.674 81.5,224.5C 103.5,238.167 125.5,251.833 147.5,265.5C 143.839,270.816 140.672,276.483 138,282.5C 134.635,285.207 131.968,288.54 130,292.5C 129.517,293.448 129.351,294.448 129.5,295.5C 100.079,292.289 74.0789,281.123 51.5,262C 44.2701,254.938 37.2701,247.771 30.5,240.5C 18.4355,226.202 9.93551,209.869 5,191.5C 2.61286,182.807 0.779523,174.14 -0.5,165.5C -0.5,154.833 -0.5,144.167 -0.5,133.5C 2.36613,109.898 10.3661,88.2313 23.5,68.5 Z"/></g>
<g><path style="opacity:1" fill="#fecc40" d="M 289.5,96.5 C 294.83,108.157 297.83,120.491 298.5,133.5C 271.5,133.5 244.5,133.5 217.5,133.5C 216.707,129.12 215.707,124.786 214.5,120.5C 239.714,114.529 265.047,109.196 290.5,104.5C 290.167,101.833 289.833,99.1667 289.5,96.5 Z"/></g>
<g><path style="opacity:1" fill="#404041" d="M 95.5,133.5 C 131.5,133.5 167.5,133.5 203.5,133.5C 207.833,133.5 212.167,133.5 216.5,133.5C 216.833,133.5 217.167,133.5 217.5,133.5C 244.5,133.5 271.5,133.5 298.5,133.5C 298.833,133.5 299.167,133.5 299.5,133.5C 299.5,163.833 299.5,194.167 299.5,224.5C 292.833,224.5 286.167,224.5 279.5,224.5C 248.833,224.5 218.167,224.5 187.5,224.5C 186.833,224.5 186.167,224.5 185.5,224.5C 177.833,224.5 170.167,224.5 162.5,224.5C 135.5,224.5 108.5,224.5 81.5,224.5C 80.503,205.674 80.1697,186.674 80.5,167.5C 81.4946,156.679 81.8279,145.679 81.5,134.5C 86.3633,134.819 91.03,134.486 95.5,133.5 Z"/></g>
<g><path style="opacity:1" fill="#6d4f4c" d="M 82.5,133.5 C 86.8333,133.5 91.1667,133.5 95.5,133.5C 91.03,134.486 86.3633,134.819 81.5,134.5C 81.8279,145.679 81.4946,156.679 80.5,167.5C 80.1667,166.833 79.8333,166.167 79.5,165.5C 79.8417,154.628 80.8417,143.961 82.5,133.5 Z"/></g>
<g><path style="opacity:1" fill="#f6f6f6" d="M 134.5,153.5 C 143.173,153.334 151.84,153.5 160.5,154C 170.505,158.331 175.505,165.998 175.5,177C 175.842,186.321 172.508,193.988 165.5,200C 163.608,200.973 161.608,201.64 159.5,202C 151.173,202.5 142.84,202.666 134.5,202.5C 134.5,186.167 134.5,169.833 134.5,153.5 Z"/></g>
<g><path style="opacity:1" fill="#fbfbfb" d="M 217.5,174.5 C 217.5,176.167 217.5,177.833 217.5,179.5C 208.318,179.173 199.318,179.507 190.5,180.5C 190.5,185.833 190.5,191.167 190.5,196.5C 200.5,196.5 210.5,196.5 220.5,196.5C 220.5,198.5 220.5,200.5 220.5,202.5C 208.5,202.5 196.5,202.5 184.5,202.5C 184.5,186.167 184.5,169.833 184.5,153.5C 196.5,153.5 208.5,153.5 220.5,153.5C 220.5,155.5 220.5,157.5 220.5,159.5C 210.5,159.5 200.5,159.5 190.5,159.5C 190.5,164.5 190.5,169.5 190.5,174.5C 199.5,174.5 208.5,174.5 217.5,174.5 Z"/></g>
<g><path style="opacity:1" fill="#f6f6f6" d="M 226.5,153.5 C 228.924,153.192 231.257,153.526 233.5,154.5C 238.007,167.51 242.507,180.51 247,193.5C 252.192,180.424 256.692,167.091 260.5,153.5C 263.247,153.187 265.914,153.52 268.5,154.5C 262.428,170.384 256.761,186.384 251.5,202.5C 248.753,202.813 246.086,202.48 243.5,201.5C 237.255,185.683 231.588,169.683 226.5,153.5 Z"/></g>
<g><path style="opacity:1" fill="#3f3f40" d="M 141.5,159.5 C 164.981,156.753 173.148,166.753 166,189.5C 164.878,191.624 163.378,193.457 161.5,195C 154.95,196.42 148.284,196.92 141.5,196.5C 141.5,184.167 141.5,171.833 141.5,159.5 Z"/></g>
<g><path style="opacity:1" fill="#b0b0b1" d="M 217.5,174.5 C 218.461,176.265 218.795,178.265 218.5,180.5C 209.167,180.5 199.833,180.5 190.5,180.5C 199.318,179.507 208.318,179.173 217.5,179.5C 217.5,177.833 217.5,176.167 217.5,174.5 Z"/></g>
<g><path style="opacity:0.946" fill="#1d1d1d" d="M 279.5,224.5 C 286.167,224.5 292.833,224.5 299.5,224.5C 299.5,224.833 299.5,225.167 299.5,225.5C 284.647,236.422 269.647,247.088 254.5,257.5C 263.985,247.351 272.319,236.351 279.5,224.5 Z"/></g>
<g><path style="opacity:1" fill="#14864e" d="M 81.5,224.5 C 108.5,224.5 135.5,224.5 162.5,224.5C 158.601,238.848 154.934,253.181 151.5,267.5C 150.167,266.833 148.833,266.167 147.5,265.5C 125.5,251.833 103.5,238.167 81.5,224.5 Z"/></g>
<g><path style="opacity:1" fill="#177947" d="M 162.5,224.5 C 170.167,224.5 177.833,224.5 185.5,224.5C 175.568,241.365 165.902,258.365 156.5,275.5C 152.251,282.329 148.251,289.329 144.5,296.5C 143.599,297.29 142.932,298.29 142.5,299.5C 139.5,299.5 136.5,299.5 133.5,299.5C 129.361,298.437 125.028,297.77 120.5,297.5C 127.699,296.936 135.032,296.603 142.5,296.5C 147.42,288.328 152.087,279.995 156.5,271.5C 155.025,269.929 153.358,268.595 151.5,267.5C 154.934,253.181 158.601,238.848 162.5,224.5 Z"/></g>
<g><path style="opacity:1" fill="#e2b73e" d="M 185.5,224.5 C 186.167,224.5 186.833,224.5 187.5,224.5C 188.919,225.451 190.585,225.784 192.5,225.5C 192.5,247.167 192.5,268.833 192.5,290.5C 212.393,285.554 230.06,276.387 245.5,263C 246.448,262.517 247.448,262.351 248.5,262.5C 224.679,283.24 197.012,295.573 165.5,299.5C 157.833,299.5 150.167,299.5 142.5,299.5C 142.932,298.29 143.599,297.29 144.5,296.5C 160.008,298.38 175.342,296.88 190.5,292C 180.249,285.625 170.082,279.125 160,272.5C 159.241,274.063 158.074,275.063 156.5,275.5C 165.902,258.365 175.568,241.365 185.5,224.5 Z"/></g>
<g><path style="opacity:1" fill="#efc13e" d="M 187.5,224.5 C 218.167,224.5 248.833,224.5 279.5,224.5C 272.319,236.351 263.985,247.351 254.5,257.5C 254.5,258.167 254.167,258.5 253.5,258.5C 251.5,258.5 250.5,259.5 250.5,261.5C 249.833,261.833 249.167,262.167 248.5,262.5C 247.448,262.351 246.448,262.517 245.5,263C 230.06,276.387 212.393,285.554 192.5,290.5C 192.5,268.833 192.5,247.167 192.5,225.5C 190.585,225.784 188.919,225.451 187.5,224.5 Z"/></g>
<g><path style="opacity:0.173" fill="#282115" d="M 253.5,258.5 C 252.833,259.833 251.833,260.833 250.5,261.5C 250.5,259.5 251.5,258.5 253.5,258.5 Z"/></g>
<g><path style="opacity:1" fill="#128d4f" d="M 30.5,240.5 C 37.2701,247.771 44.2701,254.938 51.5,262C 74.0789,281.123 100.079,292.289 129.5,295.5C 129.351,294.448 129.517,293.448 130,292.5C 131.968,288.54 134.635,285.207 138,282.5C 140.672,276.483 143.839,270.816 147.5,265.5C 148.833,266.167 150.167,266.833 151.5,267.5C 153.358,268.595 155.025,269.929 156.5,271.5C 152.087,279.995 147.42,288.328 142.5,296.5C 135.032,296.603 127.699,296.936 120.5,297.5C 83.28,289.575 53.28,270.575 30.5,240.5 Z"/></g>
<g><path style="opacity:1" fill="#fece43" d="M 144.5,296.5 C 148.251,289.329 152.251,282.329 156.5,275.5C 158.074,275.063 159.241,274.063 160,272.5C 170.082,279.125 180.249,285.625 190.5,292C 175.342,296.88 160.008,298.38 144.5,296.5 Z"/></g>
</svg>
