<?xml version="1.0" encoding="UTF-8"?>
<!DOCTYPE svg PUBLIC "-//W3C//DTD SVG 1.1//EN" "http://www.w3.org/Graphics/SVG/1.1/DTD/svg11.dtd">
<svg xmlns="http://www.w3.org/2000/svg" version="1.1" width="256px" height="256px" style="shape-rendering:geometricPrecision; text-rendering:geometricPrecision; image-rendering:optimizeQuality; fill-rule:evenodd; clip-rule:evenodd" xmlns:xlink="http://www.w3.org/1999/xlink">
<g><path style="opacity:0.053" fill="#010300" d="M 88.5,4.5 C 141.501,4.33334 194.501,4.50001 247.5,5C 248.416,5.37424 249.25,5.87424 250,6.5C 251.658,60.4172 251.991,114.417 251,168.5C 250.333,169.833 249.667,171.167 249,172.5C 222.472,199.362 195.639,225.862 168.5,252C 115.545,253.649 62.5452,253.982 9.5,253C 7.15226,252.654 5.31892,251.487 4,249.5C 3.33333,195.833 3.33333,142.167 4,88.5C 31.4205,59.579 59.5872,31.579 88.5,4.5 Z"/></g>
<g><path style="opacity:0.999" fill="#27c007" d="M 182.5,231.5 C 129.5,231.5 76.5,231.5 23.5,231.5C 23.5,178.5 23.5,125.5 23.5,72.5C 44.9935,50.1732 66.9935,28.3399 89.5,7C 141.833,6.33333 194.167,6.33333 246.5,7C 247,7.5 247.5,8 248,8.5C 248.667,61.1667 248.667,113.833 248,166.5C 226.299,188.368 204.465,210.035 182.5,231.5 Z"/></g>
<g><path style="opacity:1" fill="#289e04" d="M 23.5,72.5 C 23.5,125.5 23.5,178.5 23.5,231.5C 76.5,231.5 129.5,231.5 182.5,231.5C 182.5,232.167 182.167,232.5 181.5,232.5C 128.5,232.5 75.5,232.5 22.5,232.5C 22.5,179.5 22.5,126.5 22.5,73.5C 22.5,72.8333 22.8333,72.5 23.5,72.5 Z"/></g>
<g><path style="opacity:1" fill="#2c7204" d="M 22.5,73.5 C 22.5,126.5 22.5,179.5 22.5,232.5C 75.5,232.5 128.5,232.5 181.5,232.5C 176.536,237.965 171.37,243.298 166,248.5C 113.159,247.34 60.3253,247.173 7.5,248C 6.3361,195.237 6.16944,142.404 7,89.5C 11.6704,83.6633 16.837,78.33 22.5,73.5 Z"/></g>
<g><path style="opacity:1" fill="#fdfefd" d="M 116.5,129.5 C 128.322,130.495 140.322,130.828 152.5,130.5C 152.5,135.167 152.5,139.833 152.5,144.5C 140.655,144.172 128.988,144.505 117.5,145.5C 116.505,156.321 116.172,167.321 116.5,178.5C 110.833,178.5 105.167,178.5 99.5,178.5C 99.5,149.833 99.5,121.167 99.5,92.5C 118.5,92.5 137.5,92.5 156.5,92.5C 156.5,97.5 156.5,102.5 156.5,107.5C 143.167,107.5 129.833,107.5 116.5,107.5C 116.5,114.833 116.5,122.167 116.5,129.5 Z"/></g>
<g><path style="opacity:1" fill="#bdecb2" d="M 116.5,129.5 C 128.833,129.5 141.167,129.5 153.5,129.5C 153.5,134.833 153.5,140.167 153.5,145.5C 141.5,145.5 129.5,145.5 117.5,145.5C 128.988,144.505 140.655,144.172 152.5,144.5C 152.5,139.833 152.5,135.167 152.5,130.5C 140.322,130.828 128.322,130.495 116.5,129.5 Z"/></g>
</svg>
