<?xml version="1.0" encoding="UTF-8"?>
<!DOCTYPE svg PUBLIC "-//W3C//DTD SVG 1.1//EN" "http://www.w3.org/Graphics/SVG/1.1/DTD/svg11.dtd">
<svg xmlns="http://www.w3.org/2000/svg" version="1.1" width="1280px" height="1280px" style="shape-rendering:geometricPrecision; text-rendering:geometricPrecision; image-rendering:optimizeQuality; fill-rule:evenodd; clip-rule:evenodd" xmlns:xlink="http://www.w3.org/1999/xlink">
<g><path style="opacity:0.999" fill="#3875c5" d="M 604.5,-0.5 C 627.833,-0.5 651.167,-0.5 674.5,-0.5C 875.157,14.8888 1035.99,102.222 1157,261.5C 1230.63,363.885 1271.47,478.218 1279.5,604.5C 1279.5,627.833 1279.5,651.167 1279.5,674.5C 1264.11,875.157 1176.78,1035.99 1017.5,1157C 915.115,1230.63 800.782,1271.47 674.5,1279.5C 651.167,1279.5 627.833,1279.5 604.5,1279.5C 403.843,1264.11 243.009,1176.78 122,1017.5C 48.3669,915.115 7.53359,800.782 -0.5,674.5C -0.5,651.167 -0.5,627.833 -0.5,604.5C 14.8888,403.843 102.222,243.009 261.5,122C 363.885,48.3669 478.218,7.53359 604.5,-0.5 Z"/></g>
<g><path style="opacity:1" fill="#fefefe" d="M 607.5,238.5 C 656.495,237.057 686.662,260.057 698,307.5C 700.534,338.26 690.034,363.426 666.5,383C 641.895,399.534 615.562,402.867 587.5,393C 549.33,373.831 533.497,342.997 540,300.5C 549.944,266.052 572.444,245.386 607.5,238.5 Z"/></g>
<g><path style="opacity:1" fill="#fefefe" d="M 436.5,472.5 C 555.834,472.333 675.167,472.5 794.5,473C 823.984,479.81 838.15,498.31 837,528.5C 833.247,550.918 820.414,565.085 798.5,571C 759.168,571.5 719.835,571.667 680.5,571.5C 680.333,661.501 680.5,751.501 681,841.5C 685.723,924.858 728.556,955.691 809.5,934C 815.833,931.667 822.167,929.333 828.5,927C 856.591,923.446 875.091,934.946 884,961.5C 887.485,984.358 879.319,1001.52 859.5,1013C 810.48,1036.83 758.813,1045.5 704.5,1039C 623.738,1030.57 575.905,986.407 561,906.5C 558.542,890.583 556.875,874.583 556,858.5C 555.5,762.834 555.333,667.167 555.5,571.5C 514.832,571.667 474.165,571.5 433.5,571C 403.602,561.717 391.102,541.55 396,510.5C 402.341,489.986 415.841,477.319 436.5,472.5 Z"/></g>
</svg>
